<svg width="100" height="19" viewBox="0 0 100 19" fill="none" xmlns="http://www.w3.org/2000/svg">
<path d="M24.1157 0.0711335C24.5705 0.0711335 24.9707 0.156859 25.3164 0.32831C25.6621 0.49976 25.9313 0.74052 26.1242 1.05059C26.317 1.35701 26.4134 1.71451 26.4134 2.12307C26.4134 2.52798 26.317 2.88548 26.1242 3.19555C25.9313 3.50197 25.6621 3.74273 25.3164 3.91783C24.9707 4.08928 24.5705 4.175 24.1157 4.175H22.3637V0.0711335H24.1157ZM22.8767 4.03821L22.5493 3.72084H24.1375C24.4868 3.72084 24.7925 3.65336 25.0544 3.51838C25.3164 3.38341 25.5202 3.19555 25.6657 2.95479C25.8149 2.71403 25.8895 2.43679 25.8895 2.12307C25.8895 1.80205 25.8149 1.52299 25.6657 1.28588C25.5202 1.04512 25.3164 0.857252 25.0544 0.722281C24.7925 0.587309 24.4868 0.519823 24.1375 0.519823H22.5493L22.8767 0.207929V4.03821Z" fill="#2F373D"/>
<path d="M34.6977 4.24614C34.2429 4.24614 33.8408 4.15676 33.4915 3.97802C33.1458 3.79927 32.8766 3.55121 32.6837 3.23385C32.4909 2.91283 32.3945 2.54257 32.3945 2.12307C32.3945 1.69991 32.4909 1.32965 32.6837 1.01229C32.8766 0.694922 33.1458 0.446866 33.4915 0.268119C33.8408 0.0893731 34.2429 0 34.6977 0C35.1525 0 35.5527 0.0893731 35.8984 0.268119C36.2441 0.446866 36.5133 0.694922 36.7062 1.01229C36.899 1.32965 36.9954 1.69991 36.9954 2.12307C36.9954 2.54257 36.899 2.91283 36.7062 3.23385C36.5133 3.55121 36.2441 3.79927 35.8984 3.97802C35.5527 4.15676 35.1525 4.24614 34.6977 4.24614ZM34.6977 3.78103C35.0579 3.78103 35.3708 3.71355 35.6364 3.57857C35.9021 3.43995 36.1076 3.24662 36.2532 2.99856C36.3987 2.7505 36.4715 2.45867 36.4715 2.12307C36.4715 1.78381 36.3987 1.49016 36.2532 1.2421C36.1076 0.994048 35.9021 0.802534 35.6364 0.667563C35.3708 0.532591 35.0579 0.465105 34.6977 0.465105C34.3375 0.465105 34.0245 0.532591 33.7589 0.667563C33.4933 0.802534 33.2859 0.994048 33.1367 1.2421C32.9912 1.49016 32.9184 1.78381 32.9184 2.12307C32.9184 2.45867 32.9912 2.7505 33.1367 2.99856C33.2859 3.24662 33.4933 3.43995 33.7589 3.57857C34.0245 3.71355 34.3375 3.78103 34.6977 3.78103Z" fill="#2F373D"/>
<path d="M47.417 2.59365C47.3806 2.91831 47.2659 3.20649 47.0731 3.45819C46.8803 3.70625 46.6274 3.89959 46.3145 4.03821C46.0052 4.17683 45.6504 4.24614 45.2502 4.24614C44.799 4.24614 44.4024 4.15676 44.0604 3.97802C43.722 3.79927 43.4582 3.55121 43.269 3.23385C43.0798 2.91283 42.9852 2.54257 42.9852 2.12307C42.9852 1.69991 43.0798 1.32965 43.269 1.01229C43.4582 0.694922 43.722 0.446866 44.0604 0.268119C44.4024 0.0893731 44.799 0 45.2502 0C45.6504 0 46.0052 0.0693098 46.3145 0.207929C46.6274 0.346549 46.8803 0.539887 47.0731 0.787943C47.2659 1.03235 47.3806 1.31871 47.417 1.64702H46.8985C46.8548 1.40626 46.7602 1.19833 46.6146 1.02323C46.4691 0.844485 46.2799 0.707689 46.047 0.612844C45.8142 0.514351 45.5467 0.465105 45.2447 0.465105C44.8918 0.465105 44.5843 0.532591 44.3223 0.667563C44.064 0.802534 43.8639 0.994048 43.722 1.2421C43.5801 1.49016 43.5091 1.78381 43.5091 2.12307C43.5091 2.45867 43.5801 2.7505 43.722 2.99856C43.8639 3.24662 44.064 3.43995 44.3223 3.57857C44.5843 3.71355 44.8918 3.78103 45.2447 3.78103C45.5467 3.78103 45.8142 3.73361 46.047 3.63876C46.2799 3.54027 46.4691 3.40348 46.6146 3.22838C46.7602 3.04963 46.8548 2.83805 46.8985 2.59365H47.417Z" fill="#2F373D"/>
<path d="M54.7106 0.317366H55.2236V4.175H54.7106V0.317366ZM52.9531 0.0711335H56.981V0.525295H52.9531V0.0711335Z" fill="#2F373D"/>
<path d="M64.8011 4.24614C64.3463 4.24614 63.9443 4.15676 63.595 3.97802C63.2493 3.79927 62.98 3.55121 62.7872 3.23385C62.5944 2.91283 62.4979 2.54257 62.4979 2.12307C62.4979 1.69991 62.5944 1.32965 62.7872 1.01229C62.98 0.694922 63.2493 0.446866 63.595 0.268119C63.9443 0.0893731 64.3463 0 64.8011 0C65.256 0 65.6562 0.0893731 66.0019 0.268119C66.3475 0.446866 66.6168 0.694922 66.8096 1.01229C67.0025 1.32965 67.0989 1.69991 67.0989 2.12307C67.0989 2.54257 67.0025 2.91283 66.8096 3.23385C66.6168 3.55121 66.3475 3.79927 66.0019 3.97802C65.6562 4.15676 65.256 4.24614 64.8011 4.24614ZM64.8011 3.78103C65.1614 3.78103 65.4743 3.71355 65.7399 3.57857C66.0055 3.43995 66.2111 3.24662 66.3566 2.99856C66.5022 2.7505 66.575 2.45867 66.575 2.12307C66.575 1.78381 66.5022 1.49016 66.3566 1.2421C66.2111 0.994048 66.0055 0.802534 65.7399 0.667563C65.4743 0.532591 65.1614 0.465105 64.8011 0.465105C64.4409 0.465105 64.128 0.532591 63.8624 0.667563C63.5968 0.802534 63.3894 0.994048 63.2402 1.2421C63.0947 1.49016 63.0219 1.78381 63.0219 2.12307C63.0219 2.45867 63.0947 2.7505 63.2402 2.99856C63.3894 3.24662 63.5968 3.43995 63.8624 3.57857C64.128 3.71355 64.4409 3.78103 64.8011 3.78103Z" fill="#2F373D"/>
<path d="M73.6726 2.00816H75.4301C75.6993 2.00816 75.914 1.94067 76.0741 1.8057C76.2378 1.67073 76.3197 1.49016 76.3197 1.26399C76.3197 1.03417 76.2378 0.853605 76.0741 0.722281C75.914 0.587309 75.6993 0.519823 75.4301 0.519823H73.6017L73.8309 0.246232V4.175H73.3179V0.0711335H75.4464C75.723 0.0711335 75.9649 0.122204 76.1723 0.224345C76.3797 0.322837 76.5416 0.461457 76.6581 0.640203C76.7781 0.81895 76.8382 1.02688 76.8382 1.26399C76.8382 1.49746 76.7781 1.70356 76.6581 1.88231C76.5416 2.06105 76.3797 2.2015 76.1723 2.30364C75.9649 2.40213 75.723 2.45138 75.4464 2.45138H73.6726V2.00816ZM74.5786 2.25439H75.2117L76.9201 4.175H76.2815L74.5786 2.25439Z" fill="#2F373D"/>
<path d="M5.4433 7.82289C6.73378 7.82289 7.86416 8.05149 8.83444 8.50869C9.81443 8.95616 10.5713 9.59333 11.1049 10.4202C11.6483 11.2373 11.9199 12.1955 11.9199 13.2947C11.9199 14.3939 11.6483 15.357 11.1049 16.1838C10.5713 17.001 9.81443 17.6381 8.83444 18.0953C7.86416 18.5428 6.73378 18.7665 5.4433 18.7665H0V7.82289H5.4433ZM2.99818 17.4971L1.55731 16.0817H5.67617C6.32626 16.0817 6.88902 15.9698 7.36446 15.7461C7.8496 15.5126 8.22316 15.1867 8.48514 14.7685C8.74712 14.3502 8.87811 13.8589 8.87811 13.2947C8.87811 12.7208 8.74712 12.2295 8.48514 11.821C8.22316 11.4027 7.8496 11.0817 7.36446 10.8579C6.88902 10.6245 6.32626 10.5077 5.67617 10.5077H1.55731L2.99818 9.09235V17.4971Z" fill="#2F373D"/>
<path d="M12.7823 18.7665V16.5778L19.9284 9.54469L22.1116 10.1867H12.826V7.80829H23.2759V9.99702L16.1298 17.0447L14.2523 16.3881H23.3196V18.7665H12.7823Z" fill="#2F373D"/>
<path d="M30.6846 19C29.3941 19 28.2589 18.7617 27.2789 18.285C26.3086 17.8084 25.5518 17.142 25.0084 16.286C24.4748 15.4299 24.208 14.4328 24.208 13.2947C24.208 12.1566 24.4748 11.1595 25.0084 10.3034C25.5518 9.44741 26.3086 8.78106 27.2789 8.30441C28.2589 7.82775 29.3941 7.58942 30.6846 7.58942C31.9848 7.58942 33.12 7.82775 34.0903 8.30441C35.0606 8.78106 35.8174 9.44741 36.3608 10.3034C36.9041 11.1595 37.1758 12.1566 37.1758 13.2947C37.1758 14.4328 36.9041 15.4299 36.3608 16.286C35.8174 17.142 35.0606 17.8084 34.0903 18.285C33.12 18.7617 31.9848 19 30.6846 19ZM30.6846 16.3006C31.3929 16.3006 32.0042 16.179 32.5184 15.9358C33.0327 15.6926 33.4257 15.3473 33.6973 14.8998C33.9787 14.4523 34.1194 13.9173 34.1194 13.2947C34.1194 12.6721 33.9787 12.1371 33.6973 11.6896C33.4257 11.2422 33.0327 10.8968 32.5184 10.6536C32.0042 10.4105 31.3929 10.2889 30.6846 10.2889C29.986 10.2889 29.3796 10.4105 28.8653 10.6536C28.3511 10.8968 27.9533 11.2422 27.6719 11.6896C27.3905 12.1371 27.2498 12.6721 27.2498 13.2947C27.2498 13.9173 27.3905 14.4523 27.6719 14.8998C27.9533 15.3473 28.3511 15.6926 28.8653 15.9358C29.3796 16.179 29.986 16.3006 30.6846 16.3006Z" fill="#2F373D"/>
<path d="M41.7105 9.15071H44.7378V18.7665H41.7105V9.15071ZM37.548 7.82289H48.9003V10.5077H37.548V7.82289Z" fill="#2F373D"/>
<path d="M49.436 15.177H52.5069C52.5554 15.4786 52.6961 15.7412 52.929 15.965C53.1619 16.1887 53.4723 16.3638 53.8605 16.4903C54.2583 16.607 54.724 16.6654 55.2577 16.6654C55.9951 16.6654 56.5773 16.5729 57.0042 16.3881C57.4311 16.1936 57.6446 15.9115 57.6446 15.5418C57.6446 15.2597 57.5233 15.0408 57.2807 14.8852C57.0381 14.7295 56.5724 14.6177 55.8835 14.5496L53.8459 14.3599C52.342 14.2237 51.2504 13.8832 50.5712 13.3385C49.892 12.784 49.5524 12.0398 49.5524 11.106C49.5524 10.3472 49.7707 9.70519 50.2073 9.1799C50.6537 8.6546 51.2747 8.26063 52.0703 7.99798C52.8756 7.72561 53.8119 7.58942 54.8793 7.58942C55.9272 7.58942 56.8586 7.7402 57.6737 8.04176C58.4887 8.33359 59.134 8.75188 59.6094 9.29663C60.0945 9.84138 60.3565 10.4737 60.3953 11.1935H57.3389C57.3001 10.9309 57.174 10.7071 56.9605 10.5223C56.7568 10.3278 56.4754 10.1819 56.1164 10.0846C55.7574 9.97757 55.3256 9.92407 54.821 9.92407C54.1418 9.92407 53.6033 10.0165 53.2055 10.2013C52.8077 10.3764 52.6088 10.6391 52.6088 10.9892C52.6088 11.2422 52.7252 11.4465 52.9581 11.6021C53.2007 11.7577 53.6324 11.8647 54.2534 11.9231L56.422 12.142C57.4602 12.2393 58.2898 12.4095 58.9108 12.6527C59.5318 12.8861 59.983 13.212 60.2643 13.6303C60.5457 14.0486 60.6864 14.569 60.6864 15.1916C60.6864 15.9601 60.4584 16.6313 60.0024 17.2052C59.5463 17.7694 58.9059 18.2121 58.0812 18.5331C57.2565 18.8444 56.2959 19 55.1995 19C54.0739 19 53.0794 18.8444 52.2158 18.5331C51.362 18.2121 50.6925 17.7646 50.2073 17.1907C49.7222 16.607 49.4651 15.9358 49.436 15.177Z" fill="#2F373D"/>
<path d="M68.1931 19C66.9026 19 65.7674 18.7617 64.7874 18.285C63.8171 17.8084 63.0603 17.142 62.517 16.286C61.9833 15.4299 61.7165 14.4328 61.7165 13.2947C61.7165 12.1566 61.9833 11.1595 62.517 10.3034C63.0603 9.44741 63.8171 8.78106 64.7874 8.30441C65.7674 7.82775 66.9026 7.58942 68.1931 7.58942C69.4933 7.58942 70.6285 7.82775 71.5988 8.30441C72.5691 8.78106 73.3259 9.44741 73.8693 10.3034C74.4126 11.1595 74.6843 12.1566 74.6843 13.2947C74.6843 14.4328 74.4126 15.4299 73.8693 16.286C73.3259 17.142 72.5691 17.8084 71.5988 18.285C70.6285 18.7617 69.4933 19 68.1931 19ZM68.1931 16.3006C68.9014 16.3006 69.5127 16.179 70.027 15.9358C70.5412 15.6926 70.9342 15.3473 71.2059 14.8998C71.4872 14.4523 71.6279 13.9173 71.6279 13.2947C71.6279 12.6721 71.4872 12.1371 71.2059 11.6896C70.9342 11.2422 70.5412 10.8968 70.027 10.6536C69.5127 10.4105 68.9014 10.2889 68.1931 10.2889C67.4945 10.2889 66.8881 10.4105 66.3738 10.6536C65.8596 10.8968 65.4618 11.2422 65.1804 11.6896C64.899 12.1371 64.7583 12.6721 64.7583 13.2947C64.7583 13.9173 64.899 14.4523 65.1804 14.8998C65.4618 15.3473 65.8596 15.6926 66.3738 15.9358C66.8881 16.179 67.4945 16.3006 68.1931 16.3006Z" fill="#2F373D"/>
<path d="M85.4407 12.2003V14.3891H77.4504V12.2003H85.4407ZM79.5026 13.2947L78.7894 17.6868L77.5669 16.3152H85.921V18.7665H75.7767L76.6063 13.2947L75.7767 7.82289H85.8483V10.2743H77.5669L78.7894 8.90266L79.5026 13.2947Z" fill="#2F373D"/>
<path d="M93.8872 17.4095H92.6064L96.8126 7.82289H100L94.9206 18.7665H91.5003L86.4209 7.82289H89.6519L93.8872 17.4095Z" fill="#2F373D"/>
</svg>
