<svg width="100" height="20" viewBox="0 0 100 20" fill="none" xmlns="http://www.w3.org/2000/svg">
<path d="M24.1157 0.595366C24.5705 0.595366 24.9707 0.680872 25.3164 0.851885C25.6621 1.0229 25.9313 1.26304 26.1242 1.57232C26.317 1.87796 26.4134 2.23454 26.4134 2.64206C26.4134 3.04594 26.317 3.40252 26.1242 3.7118C25.9313 4.01744 25.6621 4.25758 25.3164 4.43224C24.9707 4.60325 24.5705 4.68875 24.1157 4.68875H22.3637V0.595366H24.1157ZM22.8767 4.55231L22.5493 4.23575H24.1375C24.4868 4.23575 24.7925 4.16844 25.0544 4.03381C25.3164 3.89919 25.5202 3.7118 25.6657 3.47165C25.8149 3.23151 25.8895 2.95498 25.8895 2.64206C25.8895 2.32187 25.8149 2.04352 25.6657 1.80701C25.5202 1.56686 25.3164 1.37948 25.0544 1.24485C24.7925 1.11022 24.4868 1.04291 24.1375 1.04291H22.5493L22.8767 0.731812V4.55231Z" fill="#FDFDFD"/>
<path d="M34.6977 4.75971C34.2429 4.75971 33.8408 4.67056 33.4915 4.49227C33.1458 4.31398 32.8766 4.06656 32.6837 3.75C32.4909 3.42981 32.3945 3.0605 32.3945 2.64206C32.3945 2.21999 32.4909 1.85067 32.6837 1.53412C32.8766 1.21756 33.1458 0.970139 33.4915 0.791849C33.8408 0.613559 34.2429 0.524414 34.6977 0.524414C35.1525 0.524414 35.5527 0.613559 35.8984 0.791849C36.2441 0.970139 36.5133 1.21756 36.7062 1.53412C36.899 1.85067 36.9954 2.21999 36.9954 2.64206C36.9954 3.0605 36.899 3.42981 36.7062 3.75C36.5133 4.06656 36.2441 4.31398 35.8984 4.49227C35.5527 4.67056 35.1525 4.75971 34.6977 4.75971ZM34.6977 4.29579C35.0579 4.29579 35.3708 4.22848 35.6364 4.09385C35.902 3.95558 36.1076 3.76274 36.2532 3.51532C36.3987 3.26789 36.4715 2.97681 36.4715 2.64206C36.4715 2.30367 36.3987 2.01077 36.2532 1.76335C36.1076 1.51592 35.902 1.3249 35.6364 1.19027C35.3708 1.05564 35.0579 0.988331 34.6977 0.988331C34.3375 0.988331 34.0245 1.05564 33.7589 1.19027C33.4933 1.3249 33.2859 1.51592 33.1367 1.76335C32.9912 2.01077 32.9184 2.30367 32.9184 2.64206C32.9184 2.97681 32.9912 3.26789 33.1367 3.51532C33.2859 3.76274 33.4933 3.95558 33.7589 4.09385C34.0245 4.22848 34.3375 4.29579 34.6977 4.29579Z" fill="#FDFDFD"/>
<path d="M47.417 3.11144C47.3806 3.43527 47.2659 3.72272 47.0731 3.97378C46.8803 4.2212 46.6274 4.41404 46.3145 4.55231C46.0052 4.69057 45.6504 4.75971 45.2502 4.75971C44.799 4.75971 44.4024 4.67056 44.0604 4.49227C43.722 4.31398 43.4582 4.06656 43.269 3.75C43.0798 3.42981 42.9852 3.0605 42.9852 2.64206C42.9852 2.21999 43.0798 1.85067 43.269 1.53412C43.4582 1.21756 43.722 0.970139 44.0604 0.791849C44.4024 0.613559 44.799 0.524414 45.2502 0.524414C45.6504 0.524414 46.0052 0.593547 46.3145 0.731812C46.6274 0.870078 46.8803 1.06292 47.0731 1.31034C47.2659 1.55413 47.3806 1.83976 47.417 2.16723H46.8985C46.8548 1.92708 46.7602 1.71968 46.6146 1.54503C46.4691 1.36674 46.2799 1.2303 46.047 1.13569C45.8142 1.03745 45.5467 0.988331 45.2447 0.988331C44.8918 0.988331 44.5843 1.05564 44.3224 1.19027C44.064 1.3249 43.8639 1.51592 43.722 1.76335C43.5801 2.01077 43.5091 2.30367 43.5091 2.64206C43.5091 2.97681 43.5801 3.26789 43.722 3.51532C43.8639 3.76274 44.064 3.95558 44.3224 4.09385C44.5843 4.22848 44.8918 4.29579 45.2447 4.29579C45.5467 4.29579 45.8142 4.24849 46.047 4.15389C46.2799 4.05564 46.4691 3.9192 46.6146 3.74455C46.7602 3.56626 46.8548 3.35522 46.8985 3.11144H47.417Z" fill="#FDFDFD"/>
<path d="M54.7106 0.840969H55.2236V4.68875H54.7106V0.840969ZM52.9531 0.595366H56.981V1.04837H52.9531V0.595366Z" fill="#FDFDFD"/>
<path d="M64.8011 4.75971C64.3463 4.75971 63.9443 4.67056 63.595 4.49227C63.2493 4.31398 62.98 4.06656 62.7872 3.75C62.5944 3.42981 62.4979 3.0605 62.4979 2.64206C62.4979 2.21999 62.5944 1.85067 62.7872 1.53412C62.98 1.21756 63.2493 0.970139 63.595 0.791849C63.9443 0.613559 64.3463 0.524414 64.8011 0.524414C65.256 0.524414 65.6562 0.613559 66.0019 0.791849C66.3475 0.970139 66.6168 1.21756 66.8096 1.53412C67.0025 1.85067 67.0989 2.21999 67.0989 2.64206C67.0989 3.0605 67.0025 3.42981 66.8096 3.75C66.6168 4.06656 66.3475 4.31398 66.0019 4.49227C65.6562 4.67056 65.256 4.75971 64.8011 4.75971ZM64.8011 4.29579C65.1614 4.29579 65.4743 4.22848 65.7399 4.09385C66.0055 3.95558 66.2111 3.76274 66.3566 3.51532C66.5022 3.26789 66.5749 2.97681 66.5749 2.64206C66.5749 2.30367 66.5022 2.01077 66.3566 1.76335C66.2111 1.51592 66.0055 1.3249 65.7399 1.19027C65.4743 1.05564 65.1614 0.988331 64.8011 0.988331C64.4409 0.988331 64.128 1.05564 63.8624 1.19027C63.5968 1.3249 63.3894 1.51592 63.2402 1.76335C63.0947 2.01077 63.0219 2.30367 63.0219 2.64206C63.0219 2.97681 63.0947 3.26789 63.2402 3.51532C63.3894 3.76274 63.5968 3.95558 63.8624 4.09385C64.128 4.22848 64.4409 4.29579 64.8011 4.29579Z" fill="#FDFDFD"/>
<path d="M73.6726 2.52745H75.4301C75.6993 2.52745 75.914 2.46013 76.0741 2.3255C76.2378 2.19088 76.3197 2.01077 76.3197 1.78518C76.3197 1.55595 76.2378 1.37584 76.0741 1.24485C75.914 1.11022 75.6993 1.04291 75.4301 1.04291H73.6017L73.8309 0.770017V4.68875H73.3179V0.595366H75.4464C75.723 0.595366 75.9649 0.646306 76.1723 0.748186C76.3797 0.846427 76.5416 0.984693 76.6581 1.16298C76.7781 1.34127 76.8382 1.54867 76.8382 1.78518C76.8382 2.01805 76.7781 2.22363 76.6581 2.40191C76.5416 2.5802 76.3797 2.72029 76.1723 2.82217C75.9649 2.92041 75.723 2.96953 75.4464 2.96953H73.6726V2.52745ZM74.5786 2.77305H75.2117L76.92 4.68875H76.2815L74.5786 2.77305Z" fill="#FDFDFD"/>
<path d="M5.4433 8.32732C6.73378 8.32732 7.86416 8.55534 8.83444 9.01137C9.81443 9.4577 10.5713 10.0932 11.1049 10.918C11.6483 11.733 11.9199 12.6888 11.9199 13.7852C11.9199 14.8816 11.6483 15.8422 11.1049 16.6669C10.5713 17.482 9.81443 18.1175 8.83444 18.5735C7.86416 19.0199 6.73378 19.243 5.4433 19.243H0V8.32732H5.4433ZM2.99818 17.9768L1.55731 16.565H5.67617C6.32626 16.565 6.88902 16.4535 7.36446 16.2303C7.8496 15.9974 8.22316 15.6724 8.48514 15.2552C8.74712 14.8379 8.8781 14.3479 8.8781 13.7852C8.8781 13.2127 8.74712 12.7227 8.48514 12.3152C8.22316 11.898 7.8496 11.5778 7.36446 11.3546C6.88902 11.1217 6.32626 11.0053 5.67617 11.0053H1.55731L2.99818 9.59354V17.9768Z" fill="#FDFDFD"/>
<path d="M12.7823 19.243V17.0599L19.9284 10.0447L22.1116 10.6851H12.826V8.31277H23.2759V10.4959L16.1298 17.5256L14.2523 16.8707H23.3196V19.243H12.7823Z" fill="#FDFDFD"/>
<path d="M30.6846 19.4759C29.3941 19.4759 28.2589 19.2382 27.2789 18.7627C26.3086 18.2873 25.5518 17.6226 25.0084 16.7688C24.4748 15.9149 24.208 14.9204 24.208 13.7852C24.208 12.6499 24.4748 11.6554 25.0084 10.8015C25.5518 9.9477 26.3086 9.28305 27.2789 8.80761C28.2589 8.33217 29.3941 8.09445 30.6846 8.09445C31.9848 8.09445 33.12 8.33217 34.0903 8.80761C35.0606 9.28305 35.8174 9.9477 36.3608 10.8015C36.9041 11.6554 37.1758 12.6499 37.1758 13.7852C37.1758 14.9204 36.9041 15.9149 36.3608 16.7688C35.8174 17.6226 35.0606 18.2873 34.0903 18.7627C33.12 19.2382 31.9848 19.4759 30.6846 19.4759ZM30.6846 16.7834C31.3929 16.7834 32.0042 16.6621 32.5184 16.4195C33.0327 16.1769 33.4257 15.8325 33.6973 15.3861C33.9787 14.9398 34.1194 14.4062 34.1194 13.7852C34.1194 13.1642 33.9787 12.6305 33.6973 12.1842C33.4257 11.7379 33.0327 11.3934 32.5184 11.1509C32.0042 10.9083 31.3929 10.787 30.6846 10.787C29.986 10.787 29.3796 10.9083 28.8653 11.1509C28.3511 11.3934 27.9533 11.7379 27.6719 12.1842C27.3905 12.6305 27.2498 13.1642 27.2498 13.7852C27.2498 14.4062 27.3905 14.9398 27.6719 15.3861C27.9533 15.8325 28.3511 16.1769 28.8653 16.4195C29.3796 16.6621 29.986 16.7834 30.6846 16.7834Z" fill="#FDFDFD"/>
<path d="M41.7105 9.65176H44.7378V19.243H41.7105V9.65176ZM37.548 8.32732H48.9003V11.0053H37.548V8.32732Z" fill="#FDFDFD"/>
<path d="M49.436 15.6627H52.5069C52.5554 15.9635 52.6961 16.2254 52.929 16.4486C53.1619 16.6718 53.4723 16.8464 53.8605 16.9726C54.2583 17.089 54.724 17.1472 55.2577 17.1472C55.9951 17.1472 56.5773 17.055 57.0042 16.8707C57.4311 16.6766 57.6446 16.3952 57.6446 16.0265C57.6446 15.7451 57.5233 15.5268 57.2807 15.3716C57.0381 15.2163 56.5724 15.1048 55.8835 15.0368L53.8459 14.8476C52.342 14.7118 51.2504 14.3722 50.5712 13.8288C49.892 13.2758 49.5524 12.5335 49.5524 11.602C49.5524 10.8452 49.7707 10.2048 50.2073 9.68087C50.6537 9.15692 51.2747 8.76395 52.0703 8.50197C52.8756 8.23029 53.8119 8.09445 54.8793 8.09445C55.9272 8.09445 56.8586 8.24485 57.6737 8.54564C58.4887 8.83672 59.134 9.25394 59.6094 9.7973C60.0945 10.3407 60.3565 10.9713 60.3953 11.6894H57.3389C57.3001 11.4274 57.174 11.2042 56.9605 11.0199C56.7568 10.8258 56.4754 10.6803 56.1164 10.5832C55.7574 10.4765 55.3256 10.4231 54.821 10.4231C54.1418 10.4231 53.6033 10.5153 53.2055 10.6997C52.8077 10.8743 52.6088 11.1363 52.6088 11.4856C52.6088 11.7379 52.7252 11.9416 52.9581 12.0969C53.2007 12.2521 53.6324 12.3589 54.2534 12.4171L56.422 12.6354C57.4602 12.7324 58.2898 12.9022 58.9108 13.1448C59.5318 13.3777 59.983 13.7027 60.2643 14.1199C60.5457 14.5371 60.6864 15.0562 60.6864 15.6772C60.6864 16.4438 60.4584 17.1132 60.0024 17.6857C59.5463 18.2485 58.9059 18.69 58.0812 19.0102C57.2565 19.3206 56.2959 19.4759 55.1995 19.4759C54.0739 19.4759 53.0794 19.3206 52.2158 19.0102C51.362 18.69 50.6925 18.2436 50.2073 17.6712C49.7222 17.089 49.4651 16.4195 49.436 15.6627Z" fill="#FDFDFD"/>
<path d="M68.1931 19.4759C66.9026 19.4759 65.7674 19.2382 64.7874 18.7627C63.8171 18.2873 63.0603 17.6226 62.517 16.7688C61.9833 15.9149 61.7165 14.9204 61.7165 13.7852C61.7165 12.6499 61.9833 11.6554 62.517 10.8015C63.0603 9.9477 63.8171 9.28305 64.7874 8.80761C65.7674 8.33217 66.9026 8.09445 68.1931 8.09445C69.4933 8.09445 70.6285 8.33217 71.5988 8.80761C72.5691 9.28305 73.3259 9.9477 73.8693 10.8015C74.4126 11.6554 74.6843 12.6499 74.6843 13.7852C74.6843 14.9204 74.4126 15.9149 73.8693 16.7688C73.3259 17.6226 72.5691 18.2873 71.5988 18.7627C70.6285 19.2382 69.4933 19.4759 68.1931 19.4759ZM68.1931 16.7834C68.9014 16.7834 69.5127 16.6621 70.027 16.4195C70.5412 16.1769 70.9342 15.8325 71.2059 15.3861C71.4872 14.9398 71.6279 14.4062 71.6279 13.7852C71.6279 13.1642 71.4872 12.6305 71.2059 12.1842C70.9342 11.7379 70.5412 11.3934 70.027 11.1509C69.5127 10.9083 68.9014 10.787 68.1931 10.787C67.4945 10.787 66.8881 10.9083 66.3738 11.1509C65.8596 11.3934 65.4618 11.7379 65.1804 12.1842C64.899 12.6305 64.7583 13.1642 64.7583 13.7852C64.7583 14.4062 64.899 14.9398 65.1804 15.3861C65.4618 15.8325 65.8596 16.1769 66.3738 16.4195C66.8881 16.6621 67.4945 16.7834 68.1931 16.7834Z" fill="#FDFDFD"/>
<path d="M85.4407 12.6936V14.8767H77.4504V12.6936H85.4407ZM79.5026 13.7852L78.7894 18.166L77.5669 16.7979H85.921V19.243H75.7767L76.6063 13.7852L75.7767 8.32732H85.8482V10.7724H77.5669L78.7894 9.40434L79.5026 13.7852Z" fill="#FDFDFD"/>
<path d="M93.8872 17.8895H92.6064L96.8126 8.32732H100L94.9206 19.243H91.5003L86.4209 8.32732H89.6519L93.8872 17.8895Z" fill="#FDFDFD"/>
</svg>
