<svg width="221" height="20" viewBox="0 0 221 20" fill="none" xmlns="http://www.w3.org/2000/svg">
<mask id="mask0_81_460" style="mask-type:luminance" maskUnits="userSpaceOnUse" x="0" y="0" width="221" height="20">
<path d="M220.5 0H0.5V20H220.5V0Z" fill="white"/>
</mask>
<g mask="url(#mask0_81_460)">
<path fill-rule="evenodd" clip-rule="evenodd" d="M9.90902 0.147709C9.94777 0.147711 9.98669 0.147713 10.0258 0.147713C10.0648 0.147713 10.1038 0.147711 10.1425 0.147709C11.7609 0.147623 13.1494 0.147549 14.26 0.297634C15.4479 0.458162 16.5781 0.819032 17.4939 1.73939C18.4095 2.65976 18.7686 3.79573 18.9283 4.98974C19.0775 6.10603 19.0775 7.5016 19.0774 9.12824V17.9339C19.0774 18.9119 18.2886 19.7047 17.3157 19.7047C16.3427 19.7047 15.554 18.9119 15.554 17.9339V9.24563C15.554 7.46857 15.5502 6.31386 15.4363 5.46163C15.329 4.66034 15.1542 4.39627 15.0024 4.24359C14.8505 4.09091 14.5877 3.91526 13.7905 3.80753C12.9426 3.69295 11.7938 3.68919 10.0258 3.68919C8.25774 3.68919 7.10892 3.69295 6.261 3.80753C5.46379 3.91526 5.20107 4.09091 5.04918 4.24359C4.89727 4.39627 4.72251 4.66034 4.61532 5.46163C4.50132 6.31386 4.49758 7.46857 4.49758 9.24563V17.9339C4.49758 18.9119 3.70883 19.7047 2.73586 19.7047C1.76288 19.7047 0.974129 18.9119 0.974129 17.9339V9.24563C0.974129 9.20641 0.974127 9.16728 0.974125 9.12824C0.97404 7.5016 0.973967 6.10603 1.12329 4.98974C1.283 3.79573 1.64204 2.65976 2.55771 1.73939C3.47339 0.819032 4.60358 0.458162 5.79151 0.297634C6.90214 0.147549 8.29062 0.147623 9.90902 0.147709Z" fill="#EC2327"/>
<path fill-rule="evenodd" clip-rule="evenodd" d="M21.9829 3.27856C21.9829 1.62616 23.3157 0.286621 24.9596 0.286621H33.4645C36.4505 0.286621 38.8712 2.71965 38.8712 5.72096V7.71706C38.8712 10.7184 36.4505 13.1514 33.4645 13.1514H25.5064V17.9329C25.5064 18.9109 24.7176 19.7037 23.7447 19.7037C22.7717 19.7037 21.9829 18.9109 21.9829 17.9329V3.27856ZM25.5064 9.60994H33.4645C34.5045 9.60994 35.3477 8.76246 35.3477 7.71706V5.72096C35.3477 4.67556 34.5045 3.8281 33.4645 3.8281H25.5064V9.60994Z" fill="#EC2327"/>
<path fill-rule="evenodd" clip-rule="evenodd" d="M162.652 3.23633C162.652 1.58393 163.985 0.244385 165.629 0.244385H174.134C177.12 0.244385 179.541 2.67742 179.541 5.67872V7.67483C179.541 10.6761 177.12 13.1091 174.134 13.1091H166.176V17.8907C166.176 18.8686 165.387 19.6614 164.414 19.6614C163.441 19.6614 162.652 18.8686 162.652 17.8907V3.23633ZM166.176 9.56775H174.134C175.174 9.56775 176.017 8.72027 176.017 7.67483V5.67872C176.017 4.63333 175.174 3.78586 174.134 3.78586H166.176V9.56775Z" fill="#0070C0"/>
<path fill-rule="evenodd" clip-rule="evenodd" d="M206.19 0.322551L206.107 0.322531C205.608 0.322344 205.073 0.322144 204.622 0.383051C204.096 0.45416 203.43 0.636187 202.87 1.19887C202.31 1.76155 202.129 2.43085 202.058 2.95975C201.998 3.41278 201.998 3.95059 201.998 4.45303V4.53568V9.33027C201.998 9.33427 201.998 9.33836 201.998 9.34245C201.998 9.34584 201.998 9.34932 201.998 9.35271V17.8908C201.998 18.8688 202.787 19.6616 203.76 19.6616C203.85 19.6616 203.94 19.6546 204.027 19.6413C204.114 19.6546 204.203 19.6616 204.295 19.6616H214.087H214.188C214.652 19.6618 215.046 19.6621 215.4 19.6151C217.827 19.2941 219.736 17.3751 220.055 14.9366C220.102 14.5799 220.101 14.1843 220.101 13.7177V13.6167V13.5158C220.101 13.0491 220.102 12.6535 220.055 12.2968C219.883 10.9854 219.252 9.82436 218.328 8.98123C219.057 8.09193 219.494 6.9527 219.494 5.67884C219.494 2.67754 217.073 0.322551 214.087 0.322551H206.19ZM205.521 10.9541V16.1201H214.087C214.708 16.1201 214.847 16.1163 214.941 16.1039C215.785 15.9921 216.45 15.3238 216.562 14.4743C216.574 14.3803 216.578 14.2401 216.578 13.6167C216.578 12.9932 216.574 12.8531 216.562 12.7591C216.45 11.9096 215.785 11.0821 214.941 10.9703C214.847 10.9578 214.708 10.9541 214.087 10.9541H205.521ZM214.087 7.57167H205.521V4.53568C205.521 4.2655 205.521 4.05165 205.525 3.86793C205.708 3.86413 205.922 3.86403 206.19 3.86403H214.087C215.127 3.86403 215.971 4.63345 215.971 5.67884C215.971 6.72426 215.127 7.57167 214.087 7.57167Z" fill="#0070C0"/>
<path fill-rule="evenodd" clip-rule="evenodd" d="M92.4521 0.225833C92.4868 0.225834 92.5206 0.225836 92.5545 0.225836C92.5892 0.225836 92.6239 0.225834 92.6577 0.225833C94.0903 0.225773 95.3197 0.225721 96.3165 0.332834C97.375 0.446567 98.4006 0.699736 99.3059 1.36177C99.7062 1.65421 100.064 1.99534 100.371 2.37646C101.065 3.23923 101.331 4.21713 101.45 5.22597C101.563 6.1761 101.563 7.34799 101.563 8.71319V11.3794C101.563 12.7445 101.563 13.9164 101.45 14.8665C101.331 15.8754 101.065 16.8533 100.371 17.7161C100.064 18.0972 99.7062 18.4383 99.3059 18.7307C98.4006 19.3928 97.375 19.6459 96.3165 19.7596C95.3197 19.8668 94.0903 19.8667 92.6577 19.8667H92.4521C91.0204 19.8667 89.7909 19.8668 88.7942 19.7596C87.7356 19.6459 86.7093 19.3928 85.8039 18.7307C85.4045 18.4383 85.0465 18.0972 84.7393 17.7161C84.0447 16.8533 83.7789 15.8754 83.6597 14.8665C83.5479 13.9164 83.5479 12.7444 83.5479 11.3793V8.81093C83.5479 8.77823 83.5479 8.74563 83.5479 8.71319C83.5479 7.34799 83.5479 6.1761 83.6597 5.22597C83.7789 4.21713 84.0447 3.23923 84.7393 2.37646C85.0465 1.99534 85.4045 1.65421 85.8039 1.36177C86.7093 0.699736 87.7356 0.446567 88.7942 0.332834C89.7909 0.225721 91.0204 0.225773 92.4521 0.225833ZM88.9685 3.89257C88.245 3.97029 87.9878 4.10002 87.8456 4.20378C87.7069 4.30564 87.5816 4.42447 87.475 4.55722C87.3667 4.69244 87.2305 4.93791 87.1484 5.62728C87.0629 6.35274 87.0596 7.32063 87.0596 8.81093V11.2815C87.0596 12.7719 87.0629 13.7397 87.1484 14.4652C87.2305 15.1546 87.3667 15.4001 87.475 15.5353C87.5816 15.6681 87.7069 15.7868 87.8456 15.8887C87.9878 15.9924 88.245 16.1221 88.9685 16.1999C89.7292 16.2817 90.9916 16.2844 92.5545 16.2844C94.119 16.2844 95.4788 16.2817 96.2395 16.1999C96.9629 16.1221 97.221 15.9924 97.3623 15.8887C97.5019 15.7868 97.6263 15.6681 97.7338 15.5353C97.8421 15.4001 97.9783 15.1546 98.0596 14.4652C98.1459 13.7397 98.1484 12.7719 98.1484 11.2815V8.81093C98.1484 7.32063 98.1459 6.35274 98.0596 5.62728C97.9783 4.93791 97.8421 4.69244 97.7338 4.55722C97.6263 4.42447 97.5019 4.30564 97.3623 4.20378C97.221 4.10002 96.9629 3.97029 96.2395 3.89257C95.4788 3.81078 94.119 3.80812 92.5545 3.80812C90.9916 3.80812 89.7292 3.81078 88.9685 3.89257Z" fill="#0070C0"/>
<path fill-rule="evenodd" clip-rule="evenodd" d="M50.0294 0.225833C50.0635 0.225834 50.0976 0.225836 50.132 0.225836C50.1663 0.225836 50.2004 0.225834 50.2345 0.225833C51.6668 0.225773 52.8965 0.225721 53.8933 0.332834C54.9518 0.446567 55.9777 0.699736 56.8829 1.36177C57.2828 1.65421 57.6408 1.99534 57.9476 2.37646C58.6422 3.23923 58.9078 4.21713 59.0272 5.22597C59.1395 6.1761 59.1395 7.34799 59.1394 8.71319V11.3794C59.1395 12.7445 59.1395 13.9164 59.0272 14.8665C58.9078 15.8754 58.6422 16.8533 57.9476 17.7161C57.6408 18.0972 57.2828 18.4383 56.8829 18.7307C55.9777 19.3928 54.9518 19.6459 53.8933 19.7596C52.8965 19.8668 51.6668 19.8667 50.2345 19.8667H50.0294C48.5971 19.8667 47.3674 19.8668 46.3706 19.7596C45.3121 19.6459 44.2862 19.3928 43.381 18.7307C42.9811 18.4383 42.6231 18.0972 42.3163 17.7161C41.6217 16.8533 41.3561 15.8754 41.2368 14.8665C41.1244 13.9164 41.1244 12.7444 41.1245 11.3793V8.81093C41.1245 8.77823 41.1245 8.74563 41.1245 8.71319C41.1244 7.34799 41.1244 6.1761 41.2368 5.22597C41.3561 4.21713 41.6217 3.23923 42.3163 2.37646C42.6231 1.99534 42.9811 1.65421 43.381 1.36177C44.2862 0.699736 45.3121 0.446567 46.3706 0.332834C47.3674 0.225721 48.5971 0.225773 50.0294 0.225833ZM46.5455 3.89257C45.8222 3.97029 45.5646 4.10002 45.4227 4.20378C45.2835 4.30564 45.1588 4.42447 45.0519 4.55722C44.943 4.69244 44.807 4.93791 44.7254 5.62728C44.6396 6.35274 44.6368 7.32063 44.6368 8.81093V11.2815C44.6368 12.7719 44.6396 13.7397 44.7254 14.4652C44.807 15.1546 44.943 15.4001 45.0519 15.5353C45.1588 15.6681 45.2835 15.7868 45.4227 15.8887C45.5646 15.9924 45.8222 16.1221 46.5455 16.1999C47.3066 16.2817 48.5682 16.2844 50.132 16.2844C51.6957 16.2844 53.0554 16.2817 53.8166 16.1999C54.5399 16.1221 54.7973 15.9924 54.9392 15.8887C55.0785 15.7868 55.2032 15.6681 55.3101 15.5353C55.4189 15.4001 55.5551 15.1546 55.6366 14.4652C55.7224 13.7397 55.7252 12.7719 55.7252 11.2815V8.81093C55.7252 7.32063 55.7224 6.35274 55.6366 5.62728C55.5551 4.93791 55.4189 4.69244 55.3101 4.55722C55.2032 4.42447 55.0785 4.30564 54.9392 4.20378C54.7973 4.10002 54.5399 3.97029 53.8166 3.89257C53.0554 3.81078 51.6957 3.80812 50.132 3.80812C48.5682 3.80812 47.3066 3.81078 46.5455 3.89257Z" fill="#EC2327"/>
<path fill-rule="evenodd" clip-rule="evenodd" d="M151.058 0.231692C151.093 0.231695 151.126 0.231696 151.16 0.231696C151.195 0.231696 151.229 0.231695 151.263 0.231692C152.695 0.231632 153.925 0.231581 154.922 0.338695C155.981 0.452427 157.006 0.70559 157.912 1.36762C158.312 1.66007 158.67 2.0012 158.976 2.38232C159.671 3.2451 159.937 4.22298 160.056 5.23183C160.168 6.18196 160.168 7.35384 160.168 8.71897V11.3852C160.168 12.7504 160.168 13.9222 160.056 14.8724C159.937 15.8812 159.671 16.8591 158.976 17.7219C158.67 18.103 158.312 18.4442 157.912 18.7366C157.006 19.3986 155.981 19.6517 154.922 19.7655C153.925 19.8726 152.695 19.8725 151.263 19.8725H151.058C149.626 19.8725 148.396 19.8726 147.399 19.7655C146.341 19.6517 145.315 19.3986 144.41 18.7366C144.01 18.4442 143.652 18.103 143.345 17.7219C142.651 16.8591 142.385 15.8812 142.266 14.8724C142.154 13.9222 142.154 12.7504 142.154 11.3852V8.81679C142.154 8.78418 142.154 8.75149 142.154 8.71905C142.154 7.3539 142.154 6.18197 142.266 5.23183C142.385 4.22298 142.651 3.2451 143.345 2.38232C143.652 2.0012 144.01 1.66007 144.41 1.36762C145.315 0.70559 146.341 0.452427 147.399 0.338695C148.396 0.231581 149.626 0.231632 151.058 0.231692ZM147.574 3.89844C146.851 3.97615 146.594 4.10588 146.451 4.20964C146.313 4.31151 146.187 4.43032 146.081 4.56307C145.972 4.69831 145.836 4.94377 145.754 5.63314C145.669 6.3586 145.665 7.32648 145.665 8.81679V11.2874C145.665 12.7777 145.669 13.7456 145.754 14.4711C145.836 15.1604 145.972 15.4059 146.081 15.5411C146.187 15.6739 146.313 15.7927 146.451 15.8945C146.594 15.9984 146.851 16.128 147.574 16.2057C148.335 16.2876 149.597 16.2902 151.16 16.2902C152.725 16.2902 154.084 16.2876 154.845 16.2057C155.569 16.128 155.826 15.9984 155.968 15.8945C156.108 15.7927 156.232 15.6739 156.339 15.5411C156.448 15.4059 156.584 15.1604 156.665 14.4711C156.752 13.7456 156.754 12.7777 156.754 11.2874V8.81679C156.754 7.32648 156.752 6.3586 156.665 5.63314C156.584 4.94377 156.448 4.69831 156.339 4.56307C156.232 4.43032 156.108 4.31151 155.968 4.20964C155.826 4.10588 155.569 3.97615 154.845 3.89844C154.084 3.81664 152.725 3.81398 151.16 3.81398C149.597 3.81398 148.335 3.81664 147.574 3.89844Z" fill="#0070C0"/>
<path fill-rule="evenodd" clip-rule="evenodd" d="M190.527 0.236819C190.562 0.23682 190.596 0.236821 190.63 0.236821C190.664 0.236821 190.698 0.23682 190.733 0.236819C192.164 0.236759 193.395 0.236706 194.392 0.34382C195.45 0.457553 196.476 0.710718 197.381 1.37275C197.781 1.66519 198.138 2.00633 198.445 2.38744C199.14 3.25022 199.406 4.22811 199.525 5.23695C199.638 6.18708 199.638 7.35895 199.638 8.72409V11.3904C199.638 12.7555 199.638 13.9274 199.525 14.8776C199.406 15.8864 199.14 16.8643 198.445 17.7271C198.138 18.1081 197.781 18.4493 197.381 18.7417C196.476 19.4037 195.45 19.6569 194.392 19.7706C193.395 19.8777 192.164 19.8777 190.733 19.8777H190.528C189.095 19.8777 187.865 19.8777 186.868 19.7706C185.81 19.6569 184.784 19.4037 183.879 18.7417C183.479 18.4493 183.122 18.1081 182.814 17.7271C182.12 16.8643 181.854 15.8864 181.735 14.8776C181.623 13.9273 181.623 12.7555 181.623 11.3904V8.82201C181.623 8.78931 181.623 8.75662 181.623 8.72418C181.623 7.35902 181.623 6.18709 181.735 5.23695C181.854 4.22811 182.12 3.25022 182.814 2.38744C183.122 2.00633 183.479 1.66519 183.879 1.37275C184.784 0.710718 185.81 0.457553 186.868 0.34382C187.865 0.236706 189.095 0.236759 190.527 0.236819ZM187.044 3.90355C186.321 3.98128 186.063 4.11101 185.921 4.21477C185.782 4.31662 185.657 4.43545 185.55 4.56821C185.441 4.70342 185.306 4.94889 185.223 5.63826C185.138 6.36373 185.135 7.33161 185.135 8.82201V11.2925C185.135 12.7829 185.138 13.7508 185.223 14.4762C185.306 15.1656 185.441 15.4111 185.55 15.5463C185.657 15.6791 185.782 15.7978 185.921 15.8997C186.063 16.0035 186.321 16.1332 187.044 16.2109C187.805 16.2927 189.066 16.2953 190.63 16.2953C192.194 16.2953 193.553 16.2927 194.315 16.2109C195.038 16.1332 195.295 16.0035 195.437 15.8997C195.577 15.7978 195.701 15.6791 195.808 15.5463C195.917 15.4111 196.053 15.1656 196.135 14.4762C196.221 13.7508 196.223 12.7829 196.223 11.2925V8.82201C196.223 7.33161 196.221 6.36373 196.135 5.63826C196.053 4.94889 195.917 4.70342 195.808 4.56821C195.701 4.43545 195.577 4.31662 195.437 4.21477C195.295 4.11101 195.038 3.98128 194.315 3.90355C193.553 3.82177 192.194 3.81911 190.63 3.81911C189.066 3.81911 187.805 3.82177 187.044 3.90355Z" fill="#0070C0"/>
<path fill-rule="evenodd" clip-rule="evenodd" d="M76.9614 16.2501L71.5183 4.09112L66.0961 16.2501H76.9614ZM80.6186 16.2501L73.9327 1.40572C73.2542 -0.0126306 69.7669 -0.0248315 69.0964 1.40399L62.4179 16.2501H62.064C61.0909 16.2501 60.3022 17.0132 60.3022 17.9545C60.3022 18.8957 61.0909 19.6588 62.064 19.6588H80.9733C81.946 19.6588 82.7351 18.8957 82.7351 17.9545C82.7351 17.0132 81.946 16.2501 80.9733 16.2501H80.6186Z" fill="#0070C0"/>
<path fill-rule="evenodd" clip-rule="evenodd" d="M120.366 3.48709L111.418 9.97179L120.865 16.3935C121.67 16.9414 121.882 18.0422 121.337 18.8523C120.792 19.6625 119.697 19.875 118.891 19.3272L108.766 12.4448C108.323 12.1437 107.992 11.7527 107.774 11.3175V17.8922C107.774 18.8702 106.985 19.663 106.012 19.663C105.039 19.663 104.251 18.8702 104.251 17.8922V2.01668C104.251 1.03873 105.039 0.245943 106.012 0.245943C106.985 0.245943 107.774 1.03873 107.774 2.01668V8.61555C107.997 8.17116 108.337 7.77316 108.793 7.4702L118.423 0.532309C119.235 -0.00679031 120.328 0.217634 120.865 1.03358C121.4 1.84952 121.177 2.948 120.366 3.48709Z" fill="#0070C0"/>
<path fill-rule="evenodd" clip-rule="evenodd" d="M123.007 2.01732C123.007 1.03937 123.795 0.246582 124.769 0.246582H139.349C140.321 0.246582 141.11 1.03937 141.11 2.01732C141.11 2.99527 140.321 3.78805 139.349 3.78805H124.769C123.795 3.78805 123.007 2.99527 123.007 2.01732Z" fill="#0070C0"/>
<path fill-rule="evenodd" clip-rule="evenodd" d="M132.059 0.338135C133.031 0.338135 133.82 1.13092 133.82 2.10887V17.9844C133.82 18.9623 133.031 19.7552 132.059 19.7552C131.085 19.7552 130.296 18.9623 130.296 17.9844V2.10887C130.296 1.13092 131.085 0.338135 132.059 0.338135Z" fill="#0070C0"/>
</g>
</svg>
